<svg width="168" height="200" viewBox="0 0 168 200" fill="none" xmlns="http://www.w3.org/2000/svg">
<circle cx="76.9995" cy="56.9189" r="21.7613" transform="rotate(-11.6178 76.9995 56.9189)" fill="#D0F6FF"/>
<circle cx="67.76" cy="41.4493" r="25.6961" transform="rotate(-11.6178 67.76 41.4493)" stroke="#21B7E2" stroke-width="4"/>
<path d="M58.2943 54.2541C51.6983 50.9625 49.0196 42.9471 52.3112 36.3511" stroke="#21B7E2" stroke-width="4" stroke-linecap="round"/>
<circle cx="22.6554" cy="51.9344" r="10.6828" transform="rotate(-11.6178 22.6554 51.9344)" fill="#D0F6FF"/>
<circle cx="58.2951" cy="99.5421" r="10.6828" transform="rotate(-11.6178 58.2951 99.5421)" fill="#D0F6FF"/>
<circle cx="154.703" cy="164.282" r="10.6828" transform="rotate(-11.6178 154.703 164.282)" fill="#D0F6FF"/>
<circle cx="18.2692" cy="44.3535" r="11.4524" transform="rotate(-11.6178 18.2692 44.3535)" stroke="#21B7E2" stroke-width="4"/>
<circle cx="39.4248" cy="82.4172" r="7.89148" transform="rotate(-11.6178 39.4248 82.4172)" stroke="#21B7E2" stroke-width="4"/>
<path d="M19.7035 51.3294C16.7069 51.9455 13.8496 50.3628 13.3216 47.7943" stroke="#21B7E2" stroke-width="4" stroke-linecap="round"/>
</svg>
