<svg width="184" height="166" viewBox="0 0 184 166" fill="none" xmlns="http://www.w3.org/2000/svg">
<circle cx="70.5658" cy="110.79" r="27.5" transform="rotate(109.799 70.5658 110.79)" fill="#D0F6FF"/>
<circle cx="92.595" cy="102.445" r="33" transform="rotate(109.799 92.595 102.445)" stroke="#21B7E2" stroke-width="4"/>
<path d="M85.021 83.8018C92.9157 78.8566 103.324 81.2476 108.27 89.1423" stroke="#21B7E2" stroke-width="4" stroke-linecap="round"/>
<circle cx="110.999" cy="46.8949" r="13.5" transform="rotate(109.799 110.999 46.8949)" fill="#D0F6FF"/>
<circle cx="36.1795" cy="53.9703" r="13.5" transform="rotate(109.799 36.1795 53.9703)" fill="#D0F6FF"/>
<circle cx="122.064" cy="47.1584" r="15" transform="rotate(109.799 122.064 47.1584)" stroke="#21B7E2" stroke-width="4"/>
<circle cx="67.0782" cy="44.9001" r="10.5" transform="rotate(109.799 67.0782 44.9001)" stroke="#21B7E2" stroke-width="4"/>
<circle cx="160.251" cy="77.6601" r="10.5" transform="rotate(109.799 160.251 77.6601)" stroke="#21B7E2" stroke-width="4"/>
<path d="M113.596 44.11C114.905 40.4726 118.494 38.4337 121.612 39.5562" stroke="#21B7E2" stroke-width="4" stroke-linecap="round"/>
</svg>
