<svg width="242" height="271" viewBox="0 0 242 271" fill="none" xmlns="http://www.w3.org/2000/svg">
<circle cx="101.545" cy="84.0002" r="27.5" transform="rotate(-22.5259 101.545 84.0002)" fill="#D0F6FF"/>
<circle cx="86.3804" cy="67.0137" r="33" transform="rotate(-22.5259 86.3804 67.0137)" stroke="#21B7E2" stroke-width="4"/>
<path d="M77.6966 85.1666C68.7247 82.6595 63.4839 73.3539 65.991 64.382" stroke="#21B7E2" stroke-width="4" stroke-linecap="round"/>
<circle cx="32.9182" cy="90.8107" r="13.5" transform="rotate(-22.5259 32.9182 90.8107)" fill="#D0F6FF"/>
<circle cx="88.5277" cy="141.363" r="13.5" transform="rotate(-22.5259 88.5277 141.363)" fill="#D0F6FF"/>
<circle cx="223.641" cy="198.643" r="13.5" transform="rotate(-22.5259 223.641 198.643)" fill="#D0F6FF"/>
<circle cx="25.6627" cy="82.4526" r="15" transform="rotate(-22.5259 25.6627 82.4526)" stroke="#21B7E2" stroke-width="4"/>
<circle cx="61.0166" cy="124.626" r="10.5" transform="rotate(-22.5259 61.0166 124.626)" stroke="#21B7E2" stroke-width="4"/>
<path d="M29.1106 90.7659C25.5395 92.247 21.6155 90.9663 20.346 87.9054" stroke="#21B7E2" stroke-width="4" stroke-linecap="round"/>
</svg>
